# xmcd
#
# Track frame offsets:
#	150
#	19069
#	36234
#	50566
#	63431
#	78681
#	89344
#	104886
#	117435
#	132681
#	168787
#	184325
#
# Disc length: 2634 seconds
#
# Revision: 3
# Processed by: cddbd v1.5.2PL0 Copyright (c) Steve Scherf et al.
# Submitted via: audiograbber 1.80
#
DISCID=b00a480c
DTITLE=Bloomsbury Set - The Blues Brothers
DYEAR=1999
DGENRE=Blues
TTITLE0=She Caught The Katy
TTITLE1=Peter Gunn Theme
TTITLE2=Gimme Some Lovin'
TTITLE3=Shake A Tail Feather
TTITLE4=Everybody Needs Somebody To Love
TTITLE5=The Old Landmark
TTITLE6=Think
TTITLE7=Theme From The Rawhide
TTITLE8=Minnie The Moocher
TTITLE9=Sweet Home Chicago
TTITLE10=Jailhouse Rock
TTITLE11=Soul Man
EXTD=
EXTT0=
EXTT1=
EXTT2=
EXTT3=
EXTT4=
EXTT5=
EXTT6=
EXTT7=
EXTT8=
EXTT9=
EXTT10=
EXTT11=
PLAYORDER=
